<svg xmlns="http://www.w3.org/2000/svg" xmlns:xlink="http://www.w3.org/1999/xlink" xmlns:lucid="lucid" width="1844.8" height="1000"><g transform="translate(-315.19999999999993 1620)" lucid:page-tab-id="rZ2Q26y~Y9pL"><path d="M0-2518.4h3676.8V64H0z" fill="#fff"/><path d="M1085.2-800h160v120h-160z" stroke="#000" stroke-width="2" fill="#fff"/><use xlink:href="#a" transform="matrix(1,0,0,1,1090.1999999999998,-795) translate(7.125 59.0875)"/><use xlink:href="#b" transform="matrix(1,0,0,1,1090.1999999999998,-795) translate(81.975 59.0875)"/><path d="M415.2-866.25V-740h650.5" stroke="#000" stroke-width="2" fill="none"/><path d="M416.2-866.22h-2v-1.03h2z"/><path d="M1080.96-740l-14.26 4.64v-9.28z" stroke="#000" stroke-width="2"/><use xlink:href="#c" transform="matrix(1,0,0,1,691.220169339091,-765.6) translate(0 14.4)"/><use xlink:href="#d" transform="matrix(1,0,0,1,691.220169339091,-765.6) translate(64.95 14.4)"/><use xlink:href="#e" transform="matrix(1,0,0,1,691.220169339091,-765.6) translate(116.9 14.4)"/><path d="M1085.2-1070h160v120h-160z" stroke="#000" stroke-width="2" fill="#fff"/><use xlink:href="#f" transform="matrix(1,0,0,1,1090.1999999999998,-1065) translate(40.075 48.775)"/><use xlink:href="#g" transform="matrix(1,0,0,1,1090.1999999999998,-1065) translate(18.049999999999997 70.375)"/><path d="M1940-940h160v120h-160z" stroke="#000" stroke-width="2" fill="#fff"/><use xlink:href="#h" transform="matrix(1,0,0,1,1945,-935) translate(46.025 48.775)"/><use xlink:href="#g" transform="matrix(1,0,0,1,1945,-935) translate(18.049999999999997 70.375)"/><path d="M1205.02-948v68h715.48" stroke="#000" stroke-width="2" fill="none"/><path d="M1206.02-947.97h-2V-949h2z"/><path d="M1935.76-880l-14.26 4.64v-9.28z" stroke="#000" stroke-width="2"/><use xlink:href="#i" transform="matrix(1,0,0,1,1431.3338474054074,-876) translate(0 14.4)"/><use xlink:href="#j" transform="matrix(1,0,0,1,1431.3338474054074,-876) translate(116.9 14.4)"/><use xlink:href="#k" transform="matrix(1,0,0,1,1431.3338474054074,-876) translate(163.85000000000002 14.4)"/><path d="M1900-1480h240v840h-240z" fill="#fff" fill-opacity="0"/><path d="M1912-1480h8m8 0h8m8 0h8m8 0h8m8 0h8m8 0h8m8 0h8m8 0h8m8 0h8m8 0h8m8 0h8m8 0h8m8 0h8m8 0h8m8 0h4v3.96m0 7.93v7.9m0 7.94v7.92m0 7.92v7.93m0 7.93v7.93m0 7.92v7.93m0 7.93v7.93m0 7.92v7.93m0 7.93v7.92m0 7.93v7.92m0 7.93v7.92m0 7.93v7.92m0 7.93v7.92m0 7.93v7.92m0 7.92v7.93m0 7.92v7.93m0 7.92v7.93m0 7.92v7.93m0 7.92v7.93m0 7.92v7.92m0 7.92v7.92m0 7.93v7.92m0 7.92v7.92m0 7.93v7.92m0 7.92v7.92m0 7.92v7.93m0 7.9v7.94m0 7.92v7.93m0 7.9v7.94m0 7.92v7.92m0 7.93v7.93m0 7.93v7.92m0 7.93v7.93m0 7.93v7.92m0 7.93v7.93m0 7.92v7.93m0 7.92v7.93m0 7.92v7.93m0 7.92v7.93m0 7.92v7.93m0 7.92v7.92m0 7.93v7.92m0 7.93v7.92m0 7.93v7.92m0 7.93v7.92m0 7.93v7.92m0 7.92v7.92m0 7.92v7.93m0 7.92v7.92m0 7.92v7.93m0 7.92v7.92m0 7.92v7.92m0 7.93v7.9m0 7.94v3.96h-4m-8 0h-8m-8 0h-8m-8 0h-8m-8 0h-8m-8 0h-8m-8 0h-8m-8 0h-8m-8 0h-8m-8 0h-8m-8 0h-8m-8 0h-8m-8 0h-8m-8 0h-8m-8 0h-8m-8 0h-4v-3.96m0-7.93v-7.9m0-7.94v-7.92m0-7.92v-7.93m0-7.93v-7.93m0-7.92v-7.93m0-7.93v-7.93m0-7.92v-7.93m0-7.93v-7.92m0-7.93v-7.92m0-7.93v-7.92m0-7.93v-7.92m0-7.93v-7.92m0-7.93V-850m0-7.92v-7.93m0-7.92v-7.93m0-7.92v-7.93m0-7.92v-7.93m0-7.92v-7.93m0-7.92v-7.92m0-7.92v-7.92m0-7.93v-7.92m0-7.92v-7.92m0-7.93v-7.92m0-7.92v-7.92m0-7.92v-7.93m0-7.9v-7.94m0-7.92v-7.93m0-7.9v-7.94m0-7.92v-7.92m0-7.93v-7.93m0-7.93v-7.92m0-7.93v-7.93m0-7.93v-7.92m0-7.93v-7.93m0-7.92v-7.93m0-7.92v-7.93m0-7.92v-7.93m0-7.92v-7.93m0-7.92v-7.93m0-7.92v-7.92m0-7.93v-7.92m0-7.93v-7.92m0-7.93v-7.92m0-7.93v-7.92m0-7.93v-7.92m0-7.92v-7.92m0-7.92v-7.93m0-7.92v-7.92m0-7.92v-7.93m0-7.92v-7.92m0-7.92v-7.92m0-7.93v-7.9m0-7.94v-3.96h4" stroke="#147eba" stroke-width="2" fill="none"/><use xlink:href="#l" transform="matrix(1,0,0,1,1900,-1460) translate(36.40740740740739 21.333333333333336)"/><use xlink:href="#m" transform="matrix(1,0,0,1,1900,-1460) translate(85.22222222222221 21.333333333333336)"/><use xlink:href="#n" transform="matrix(1,0,0,1,1900,-1460) translate(159.22222222222223 21.333333333333336)"/><path d="M1085.2-1370h160v120h-160z" stroke="#000" stroke-width="2" fill="#fff"/><use xlink:href="#o" transform="matrix(1,0,0,1,1090.1999999999998,-1365) translate(39.599999999999994 48.775)"/><use xlink:href="#p" transform="matrix(1,0,0,1,1090.1999999999998,-1365) translate(36.525 70.375)"/><path d="M980-1480h860v840H980z" fill="#fff" fill-opacity="0"/><path d="M991.94-1480h7.97m7.97 0h7.96m7.97 0h7.96m7.96 0h7.97m7.95 0h7.96m7.97 0h7.97m7.96 0h7.96m7.97 0h7.96m7.95 0h7.96m7.98 0h7.96m7.96 0h7.97m7.96 0h7.96m7.96 0h7.96m7.96 0h7.96m7.97 0h7.97m7.96 0h7.97m7.96 0h7.96m7.97 0h7.95m7.96 0h7.97m7.97 0h7.96m7.96 0h7.97m7.96 0h7.95m7.96 0h7.98m7.96 0h7.96m7.97 0h7.96m7.96 0h7.96m7.96 0h7.96m7.96 0h7.97m7.97 0h7.96m7.97 0h7.96m7.96 0h7.97m7.95 0h7.96m7.97 0h7.97m7.96 0h7.96m7.97 0h7.96m7.95 0h7.96m7.98 0h7.96m7.96 0h7.97m7.96 0h7.96m7.96 0h7.96m7.96 0h7.96m7.97 0h7.97m7.96 0h7.97m7.96 0h7.96m7.97 0h7.95m7.96 0h7.97m7.97 0h7.96m7.96 0h7.97m7.96 0h7.95m7.96 0h7.98m7.96 0h7.96m7.97 0h7.96m7.96 0h7.96m7.96 0h3.98v3.96m0 7.93v7.9m0 7.94v7.92m0 7.92v7.93m0 7.93v7.93m0 7.92v7.93m0 7.93v7.93m0 7.92v7.93m0 7.93v7.92m0 7.93v7.92m0 7.93v7.92m0 7.93v7.92m0 7.93v7.92m0 7.93v7.92m0 7.92v7.93m0 7.92v7.93m0 7.92v7.93m0 7.92v7.93m0 7.92v7.93m0 7.92v7.92m0 7.92v7.92m0 7.93v7.92m0 7.92v7.92m0 7.93v7.92m0 7.92v7.92m0 7.92v7.93m0 7.9v7.94m0 7.92v7.93m0 7.9v7.94m0 7.92v7.92m0 7.93v7.93m0 7.93v7.92m0 7.93v7.93m0 7.93v7.92m0 7.93v7.93m0 7.92v7.93m0 7.92v7.93m0 7.92v7.93m0 7.92v7.93m0 7.92v7.93m0 7.92v7.92m0 7.93v7.92m0 7.93v7.92m0 7.93v7.92m0 7.93v7.92m0 7.93v7.92m0 7.92v7.92m0 7.92v7.93m0 7.92v7.92m0 7.92v7.93m0 7.92v7.92m0 7.92v7.92m0 7.93v7.9m0 7.94v3.96h-3.98m-7.96 0h-7.97m-7.97 0h-7.96m-7.97 0h-7.96m-7.96 0h-7.97m-7.95 0h-7.96m-7.97 0h-7.97m-7.96 0h-7.96m-7.97 0h-7.96m-7.95 0h-7.96m-7.98 0h-7.96m-7.96 0h-7.97m-7.96 0h-7.96m-7.96 0h-7.96m-7.96 0h-7.96m-7.97 0h-7.97m-7.96 0h-7.97m-7.96 0h-7.96m-7.97 0h-7.95m-7.96 0h-7.97m-7.97 0h-7.96m-7.96 0h-7.97m-7.96 0h-7.95m-7.96 0h-7.98m-7.96 0h-7.96m-7.97 0h-7.96m-7.96 0h-7.96m-7.96 0h-7.96m-7.96 0h-7.97m-7.97 0h-7.96m-7.97 0h-7.96m-7.96 0h-7.97m-7.95 0h-7.96m-7.97 0h-7.97m-7.96 0h-7.96m-7.97 0h-7.96m-7.95 0h-7.96m-7.98 0h-7.96m-7.96 0h-7.97m-7.96 0h-7.96m-7.96 0h-7.96m-7.96 0h-7.96m-7.97 0h-7.97m-7.96 0h-7.97m-7.96 0h-7.96m-7.97 0h-7.95m-7.96 0h-7.97m-7.97 0h-7.96m-7.96 0h-7.97m-7.96 0h-7.95m-7.96 0h-7.98m-7.96 0h-7.96m-7.97 0h-7.96m-7.96 0h-7.96m-7.96 0H980v-3.96m0-7.93v-7.9m0-7.94v-7.92m0-7.92v-7.93m0-7.93v-7.93m0-7.92v-7.93m0-7.93v-7.93m0-7.92v-7.93m0-7.93v-7.92m0-7.93v-7.92m0-7.93v-7.92m0-7.93v-7.92m0-7.93v-7.92m0-7.93V-850m0-7.92v-7.93m0-7.92v-7.93m0-7.92v-7.93m0-7.92v-7.93m0-7.92v-7.93m0-7.92v-7.92m0-7.92v-7.92m0-7.93v-7.92m0-7.92v-7.92m0-7.93v-7.92m0-7.92v-7.92m0-7.92v-7.93m0-7.9v-7.94m0-7.92v-7.93m0-7.9v-7.94m0-7.92v-7.92m0-7.93v-7.93m0-7.93v-7.92m0-7.93v-7.93m0-7.93v-7.92m0-7.93v-7.93m0-7.92v-7.93m0-7.92v-7.93m0-7.92v-7.93m0-7.92v-7.93m0-7.92v-7.93m0-7.92v-7.92m0-7.93v-7.92m0-7.93v-7.92m0-7.93v-7.92m0-7.93v-7.92m0-7.93v-7.92m0-7.92v-7.92m0-7.92v-7.93m0-7.92v-7.92m0-7.92v-7.93m0-7.92v-7.92m0-7.92v-7.92m0-7.93v-7.9m0-7.94v-3.96h3.98" stroke="#147eba" stroke-width="2" fill="none"/><use xlink:href="#q" transform="matrix(1,0,0,1,980,-1460) translate(374.55555555555554 21.333333333333336)"/><path d="M346.53-1600H2140v80H346.53z" stroke="#000" stroke-width="2" fill="#fff"/><use xlink:href="#r" transform="matrix(1,0,0,1,351.53333333333325,-1595) translate(751.2 38.4625)"/><use xlink:href="#s" transform="matrix(1,0,0,1,351.53333333333325,-1595) translate(799.1500000000001 38.4625)"/><use xlink:href="#t" transform="matrix(1,0,0,1,351.53333333333325,-1595) translate(819.1500000000001 38.4625)"/><use xlink:href="#u" transform="matrix(1,0,0,1,351.53333333333325,-1595) translate(917.0500000000001 38.4625)"/><use xlink:href="#v" transform="matrix(1,0,0,1,351.53333333333325,-1595) translate(965 38.4625)"/><path d="M683.93-1070h160v120h-160z" stroke="#000" stroke-width="2" fill="#fff"/><use xlink:href="#w" transform="matrix(1,0,0,1,688.9333333333333,-1065) translate(33.025 59.0875)"/><use xlink:href="#e" transform="matrix(1,0,0,1,688.9333333333333,-1065) translate(84.975 59.0875)"/><path d="M620-1480h307.2v840H620z" fill="#fff" fill-opacity="0"/><path d="M632.13-1480h8.08m8.1 0h8.08m8.08 0h8.1m8.07 0h8.1m8.07 0h8.08m8.1 0h8.07m8.1 0h8.07m8.1 0h8.07m8.07 0h8.1m8.07 0h8.1m8.07 0h8.1m8.08 0h8.08m8.1 0h8.07m8.1 0h8.07m8.08 0h8.1m8.07 0h8.1m8.07 0h8.1m8.07 0h8.07m8.1 0h4.03v3.96m0 7.93v7.9m0 7.94v7.92m0 7.92v7.93m0 7.93v7.93m0 7.92v7.93m0 7.93v7.93m0 7.92v7.93m0 7.93v7.92m0 7.93v7.92m0 7.93v7.92m0 7.93v7.92m0 7.93v7.92m0 7.93v7.92m0 7.92v7.93m0 7.92v7.93m0 7.92v7.93m0 7.92v7.93m0 7.92v7.93m0 7.92v7.92m0 7.92v7.92m0 7.93v7.92m0 7.92v7.92m0 7.93v7.92m0 7.92v7.92m0 7.92v7.93m0 7.9v7.94m0 7.92v7.93m0 7.9v7.94m0 7.92v7.92m0 7.93v7.93m0 7.93v7.92m0 7.93v7.93m0 7.93v7.92m0 7.93v7.93m0 7.92v7.93m0 7.92v7.93m0 7.92v7.93m0 7.92v7.93m0 7.92v7.93m0 7.92v7.92m0 7.93v7.92m0 7.93v7.92m0 7.93v7.92m0 7.93v7.92m0 7.93v7.92m0 7.92v7.92m0 7.92v7.93m0 7.92v7.92m0 7.92v7.93m0 7.92v7.92m0 7.92v7.92m0 7.93v7.9m0 7.94v3.96h-4.04m-8.1 0H907m-8.1 0h-8.08m-8.08 0h-8.1m-8.07 0h-8.1m-8.07 0h-8.08m-8.1 0h-8.07m-8.1 0H810m-8.1 0h-8.07m-8.07 0h-8.1m-8.07 0h-8.1m-8.07 0h-8.1m-8.08 0h-8.08m-8.1 0h-8.07m-8.1 0h-8.07m-8.08 0h-8.1m-8.07 0h-8.1m-8.07 0h-8.1m-8.07 0h-8.07m-8.1 0H620v-3.96m0-7.93v-7.9m0-7.94v-7.92m0-7.92v-7.93m0-7.93v-7.93m0-7.92v-7.93m0-7.93v-7.93m0-7.92v-7.93m0-7.93v-7.92m0-7.93v-7.92m0-7.93v-7.92m0-7.93v-7.92m0-7.93v-7.92m0-7.93V-850m0-7.92v-7.93m0-7.92v-7.93m0-7.92v-7.93m0-7.92v-7.93m0-7.92v-7.93m0-7.92v-7.92m0-7.92v-7.92m0-7.93v-7.92m0-7.92v-7.92m0-7.93v-7.92m0-7.92v-7.92m0-7.92v-7.93m0-7.9v-7.94m0-7.92v-7.93m0-7.9v-7.94m0-7.92v-7.92m0-7.93v-7.93m0-7.93v-7.92m0-7.93v-7.93m0-7.93v-7.92m0-7.93v-7.93m0-7.92v-7.93m0-7.92v-7.93m0-7.92v-7.93m0-7.92v-7.93m0-7.92v-7.93m0-7.92v-7.92m0-7.93v-7.92m0-7.93v-7.92m0-7.93v-7.92m0-7.93v-7.92m0-7.93v-7.92m0-7.92v-7.92m0-7.92v-7.93m0-7.92v-7.92m0-7.92v-7.93m0-7.92v-7.92m0-7.92v-7.92m0-7.93v-7.9m0-7.94v-3.96h4.04" stroke="#147eba" stroke-width="2" fill="none"/><use xlink:href="#x" transform="matrix(1,0,0,1,620,-1460) translate(96.44444444444443 21.333333333333336)"/><path d="M1165.2-1248v158.5" stroke="#000" stroke-width="2" fill="none"/><path d="M1166.2-1247.97h-2v-1.03h2z"/><path d="M1165.2-1074.24l-4.64-14.26h9.28z" stroke="#000" stroke-width="2"/><use xlink:href="#y" transform="matrix(1,0,0,1,1046.2999999999997,-1170.8) translate(0 14.4)"/><use xlink:href="#z" transform="matrix(1,0,0,1,1046.2999999999997,-1170.8) translate(66.9 14.4)"/><path d="M443.98-1028.86h-23.4c-1.25 0-2.25.98-2.25 2.2h27.9c0-1.2-1.02-2.2-2.25-2.2z" fill-opacity="0"/><path d="M420.6-1024.5H444c1.23 0 2.23-.97 2.23-2.17h-27.88c.02 1.2 1.03 2.17 2.25 2.17z" fill-opacity="0"/><path d="M446.2-1026.67c0 1.2-.95 2.18-2.2 2.18h-23.4c-1.27.02-2.23-.95-2.3-2.17h-40.02v2.18c0 3.03 2.5 5.47 5.6 5.47h62.62c3.1 0 5.62-2.43 5.62-5.46v-2.17zM449.64-1052.63l-3.6 3.86c0 1.38-1.2 2.48-2.6 2.48h-56.57c-1.4 0-2.57-1.1-2.57-2.47l-3.02-3.86h-2.95v3.86c0 4.57 3.83 8.26 8.54 8.25h56.58c4.72 0 8.55-3.68 8.55-8.25v-3.86z" fill="#7d7c7c"/><path d="M446.5-1037.52c3.04 0 5.62 2.4 5.62 5.4v4.44c0 3-2.5 5.44-5.6 5.44h-62.63c-3.1 0-5.62-2.43-5.62-5.44v-4.4c0-3 2.5-5.44 5.6-5.42zm-2.5 9.83c1.26 0 2.22-.97 2.22-2.18 0-1.2-.96-2.18-2.22-2.18h-23.4c-1.26 0-2.22.97-2.22 2.18 0 1.2.96 2.2 2.2 2.2H444M443.45-1091c4.72 0 8.55 3.7 8.55 8.23v30.82c0 4.54-3.83 8.23-8.55 8.23h-56.58c-4.7 0-8.54-3.7-8.54-8.23v-30.82c0-4.54 3.83-8.23 8.54-8.23zm2.58 39.05v-30.82c0-1.37-1.18-2.46-2.58-2.46h-56.58c-1.4 0-2.57 1.1-2.57 2.46v30.82c0 1.32 1.17 2.46 2.57 2.46h56.58c1.4 0 2.58-1.08 2.58-2.45" fill="#d2d3d3"/><use xlink:href="#A" transform="matrix(1,0,0,1,378.276923076923,-1019.0215728274172) translate(24.525 14.4)"/><path d="M425.7-970.7c2.26 0 4.1 1.8 4.14 4l9.36 60.8c0 2.2-1.88 4-4.13 4h-39.74c-2.26 0-4.13-1.8-4.13-4l11.66-60.8c.05-2.2 1.87-4 4.13-4z" fill="#7d7c7c"/><path d="M435.07-973.87c2.26 0 4.13 1.8 4.13 4v60.8c0 2.2-1.87 3.98-4.13 3.98h-39.74c-2.26 0-4.13-1.78-4.13-3.98v-60.8c0-2.2 1.87-3.92 4.13-3.92z" fill="#d2d3d3"/><path d="M403.2-969.45h23.92c1.47 0 2.67 1.18 2.67 2.62 0 1.38-1.2 2.57-2.68 2.57H403.2c-1.48 0-2.68-1.2-2.68-2.57 0-1.44 1.2-2.62 2.67-2.62zm12 62.55c-2.56 0-4.65-2.06-4.6-4.57 0-2.5 2.08-4.5 4.63-4.5 2.56 0 4.65 2.06 4.65 4.5 0 2.5-2.1 4.57-4.7 4.57zm19.32-14.5c-.12 1.36-1.32 2.43-2.75 2.37h-33.23c-1.43.06-2.63-1-2.75-2.38v-36.17c.1-1.44 1.3-2.44 2.74-2.38h33.23c1.43-.06 2.63.94 2.75 2.38z" fill="#fff"/><use xlink:href="#B" transform="matrix(1,0,0,1,391.19999999999993,-901.8895348837209) translate(-2.4250000000000043 14.4)"/><path d="M335.2-1151.25h160v282.5h-160z" fill="#fff" fill-opacity="0"/><path d="M352.34-1151.25h11.43m11.43 0h11.43m11.43 0h11.43m11.4 0h11.44m11.43 0h11.43m11.43 0h11.43m11.43 0h5.7v5.9m0 11.76v11.78m0 11.77v11.77m0 11.77v11.76m0 11.77v11.77m0 11.77v11.77m0 11.77v11.8m0 11.76v11.77m0 11.77v11.77m0 11.77v11.77m0 11.78v11.77m0 11.77v11.77m0 11.76v5.9h-5.7m-11.44 0h-11.43m-11.43 0h-11.43m-11.43 0H420.9m-11.4 0h-11.44m-11.43 0H375.2m-11.43 0h-11.43m-11.43 0h-5.7v-5.9m0-11.77v-11.78m0-11.77v-11.77m0-11.77v-11.76m0-11.77v-11.77m0-11.77v-11.77m0-11.77v-11.8m0-11.76v-11.77m0-11.77v-11.77m0-11.77v-11.77m0-11.78v-11.77m0-11.77v-11.77m0-11.76v-5.9h5.7" stroke="#147eba" stroke-width="3" fill="none"/><use xlink:href="#C" transform="matrix(1,0,0,1,335.19999999999993,-1131.25) translate(43.074074074074076 21.333333333333336)"/><path d="M497.7-1010h166.73" stroke="#000" stroke-width="2" fill="none"/><path d="M497.73-1009h-1.03v-2h1.03z"/><path d="M679.7-1010l-14.27 4.64v-9.28z" stroke="#000" stroke-width="2"/><use xlink:href="#D" transform="matrix(1,0,0,1,532.7135342006478,-1035.6) translate(0 14.4)"/><path d="M1247.2-1310h193.3" stroke="#000" stroke-width="2" fill="none"/><path d="M1247.23-1309h-1.03v-2h1.03z"/><path d="M1455.76-1310l-14.26 4.64v-9.28z" stroke="#000" stroke-width="2"/><use xlink:href="#E" transform="matrix(1,0,0,1,1373.5193298969073,-1335.6000000000001) translate(0 14.4)"/><path d="M1247.2-1010h193.3" stroke="#000" stroke-width="2" fill="none"/><path d="M1247.23-1009h-1.03v-2h1.03z"/><path d="M1455.76-1010l-14.26 4.64v-9.28z" stroke="#000" stroke-width="2"/><use xlink:href="#E" transform="matrix(1,0,0,1,1392.8186837815813,-1035.6) translate(0 14.4)"/><path d="M1487.6-1338.3h300v35.8h-300z" stroke="#000" stroke-width="2" fill="#fff"/><use xlink:href="#F" transform="matrix(1,0,0,1,1492.6,-1333.2894736842106) translate(25.624999999999986 16.025)"/><use xlink:href="#G" transform="matrix(1,0,0,1,1492.6,-1333.2894736842106) translate(68.57499999999999 16.025)"/><use xlink:href="#H" transform="matrix(1,0,0,1,1492.6,-1333.2894736842106) translate(171.47500000000002 16.025)"/><path d="M1487.6-1293.28h300v35.78h-300z" stroke="#000" stroke-width="2" fill="#fff"/><use xlink:href="#F" transform="matrix(1,0,0,1,1492.6,-1288.2825711820535) translate(9.724999999999966 16.025)"/><use xlink:href="#I" transform="matrix(1,0,0,1,1492.6,-1288.2825711820535) translate(52.67499999999997 16.025)"/><use xlink:href="#H" transform="matrix(1,0,0,1,1492.6,-1288.2825711820535) translate(187.375 16.025)"/><path d="M1460-1392.5h355.2v165H1460z" fill="#fff" fill-opacity="0"/><path d="M1472.1-1392.5h8.08m8.07 0h8.08m8.07 0h8.07m8.08 0h8.07m8.07 0h8.06m8.08 0h8.07m8.08 0h8.07m8.08 0h8.07m8.07 0h8.08m8.07 0h8.07m8.06 0h8.08m8.07 0h8.08m8.07 0h8.08m8.07 0h8.07m8.08 0h8.07m8.07 0h8.06m8.08 0h8.07m8.08 0h8.07m8.08 0h8.07m8.07 0h8.08m8.07 0h8.07m8.06 0h4.04v4.12m0 8.25v8.25m0 8.25v8.25m0 8.25v8.25m0 8.25v8.25m0 8.25v8.25m0 8.25v8.25m0 8.25v8.25m0 8.25v8.25m0 8.25v8.25m0 8.25v4.13h-4.04m-8.07 0H1795m-8.07 0h-8.08m-8.07 0h-8.07m-8.08 0h-8.07m-8.07 0h-8.06m-8.08 0h-8.07m-8.08 0h-8.07m-8.08 0H1682m-8.07 0h-8.08m-8.07 0h-8.07m-8.06 0h-8.08m-8.07 0h-8.08m-8.07 0h-8.08m-8.07 0h-8.07m-8.08 0h-8.07m-8.07 0h-8.06m-8.08 0h-8.07m-8.08 0h-8.07m-8.08 0h-8.07m-8.07 0h-8.08m-8.07 0h-8.07m-8.06 0H1460v-4.12m0-8.25v-8.25m0-8.25v-8.25m0-8.25v-8.25m0-8.25v-8.25m0-8.25v-8.25m0-8.25v-8.25m0-8.25v-8.25m0-8.25v-8.25m0-8.25v-8.25m0-8.25v-4.13h4.04" stroke="#147eba" stroke-width="2" fill="none"/><g><use xlink:href="#J" transform="matrix(1,0,0,1,1460,-1372.5) translate(108.12345679012346 14.222222222222223)"/><use xlink:href="#K" transform="matrix(1,0,0,1,1460,-1372.5) translate(163.23456790123458 14.222222222222223)"/></g><path d="M1487.6-1038.3h300v35.8h-300z" stroke="#000" stroke-width="2" fill="#fff"/><g><use xlink:href="#L" transform="matrix(1,0,0,1,1492.6,-1033.2894736842106) translate(102.1358024691358 15.847222222222223)"/><use xlink:href="#M" transform="matrix(1,0,0,1,1492.6,-1033.2894736842106) translate(157.2962962962963 15.847222222222223)"/></g><path d="M1487.6-993.28h300v35.78h-300z" stroke="#000" stroke-width="2" fill="#fff"/><g><use xlink:href="#N" transform="matrix(1,0,0,1,1492.6,-988.2825711820536) translate(89.34567901234567 15.847222222222223)"/><use xlink:href="#O" transform="matrix(1,0,0,1,1492.6,-988.2825711820536) translate(155.41975308641975 15.847222222222223)"/></g><path d="M1460-1092.5h355.2v165H1460z" fill="#fff" fill-opacity="0"/><path d="M1472.1-1092.5h8.08m8.07 0h8.08m8.07 0h8.07m8.08 0h8.07m8.07 0h8.06m8.08 0h8.07m8.08 0h8.07m8.08 0h8.07m8.07 0h8.08m8.07 0h8.07m8.06 0h8.08m8.07 0h8.08m8.07 0h8.08m8.07 0h8.07m8.08 0h8.07m8.07 0h8.06m8.08 0h8.07m8.08 0h8.07m8.08 0h8.07m8.07 0h8.08m8.07 0h8.07m8.06 0h4.04v4.12m0 8.25v8.25m0 8.25v8.25m0 8.25v8.25m0 8.25v8.25m0 8.25v8.25m0 8.25v8.25m0 8.25v8.25m0 8.25v8.25m0 8.25v8.25m0 8.25v4.13h-4.04m-8.07 0H1795m-8.07 0h-8.08m-8.07 0h-8.07m-8.08 0h-8.07m-8.07 0h-8.06m-8.08 0h-8.07m-8.08 0h-8.07m-8.08 0H1682m-8.07 0h-8.08m-8.07 0h-8.07m-8.06 0h-8.08m-8.07 0h-8.08m-8.07 0h-8.08m-8.07 0h-8.07m-8.08 0h-8.07m-8.07 0h-8.06m-8.08 0h-8.07m-8.08 0h-8.07m-8.08 0h-8.07m-8.07 0h-8.08m-8.07 0h-8.07m-8.06 0H1460v-4.12m0-8.25v-8.25m0-8.25v-8.25m0-8.25v-8.25m0-8.25v-8.25m0-8.25v-8.25m0-8.25v-8.25m0-8.25v-8.25m0-8.25v-8.25m0-8.25v-8.25m0-8.25v-4.13h4.04" stroke="#147eba" stroke-width="2" fill="none"/><g><use xlink:href="#J" transform="matrix(1,0,0,1,1460,-1072.5) translate(108.12345679012346 14.222222222222223)"/><use xlink:href="#K" transform="matrix(1,0,0,1,1460,-1072.5) translate(163.23456790123458 14.222222222222223)"/></g><path d="M1165.2-802v-48H763.93v-80.5" stroke="#000" stroke-width="2" fill="none"/><path d="M1166.2-801h-2v-1.03h2z"/><path d="M763.93-945.76l4.64 14.26h-9.27z" stroke="#000" stroke-width="2"/><g><use xlink:href="#P" transform="matrix(1,0,0,1,933.6666666666666,-875.5999999999999) translate(0 14.4)"/></g><path d="M845.93-1010h219.77" stroke="#000" stroke-width="2" fill="none"/><path d="M845.96-1009h-1.03v-2h1.03z"/><path d="M1080.96-1010l-14.26 4.64v-9.28z" stroke="#000" stroke-width="2"/><path d="M763.93-1072v-238h301.77" stroke="#000" stroke-width="2" fill="none"/><path d="M764.93-1071h-2v-1.03h2z"/><path d="M1080.96-1310l-14.26 4.64v-9.28z" stroke="#000" stroke-width="2"/><g><use xlink:href="#Q" transform="matrix(1,0,0,1,921.525,-1335.6000000000001) translate(0 14.4)"/></g><defs><path d="M63-220v92h138v28H63V0H30v-248h175v28H63" id="R"/><path d="M24-231v-30h32v30H24zM24 0v-190h32V0H24" id="S"/><path d="M114-163C36-179 61-72 57 0H25l-1-190h30c1 12-1 29 2 39 6-27 23-49 58-41v29" id="T"/><path d="M100-194c63 0 86 42 84 106H49c0 40 14 67 53 68 26 1 43-12 49-29l28 8c-11 28-37 45-77 45C44 4 14-33 15-96c1-61 26-98 85-98zm52 81c6-60-76-77-97-28-3 7-6 17-6 28h103" id="U"/><path d="M115-194c53 0 69 39 70 98 0 66-23 100-70 100C84 3 66-7 56-30L54 0H23l1-261h32v101c10-23 28-34 59-34zm-8 174c40 0 45-34 45-75 0-40-5-75-45-74-42 0-51 32-51 76 0 43 10 73 51 73" id="V"/><path d="M141-36C126-15 110 5 73 4 37 3 15-17 15-53c-1-64 63-63 125-63 3-35-9-54-41-54-24 1-41 7-42 31l-33-3c5-37 33-52 76-52 45 0 72 20 72 64v82c-1 20 7 32 28 27v20c-31 9-61-2-59-35zM48-53c0 20 12 33 32 33 41-3 63-29 60-74-43 2-92-5-92 41" id="W"/><path d="M135-143c-3-34-86-38-87 0 15 53 115 12 119 90S17 21 10-45l28-5c4 36 97 45 98 0-10-56-113-15-118-90-4-57 82-63 122-42 12 7 21 19 24 35" id="X"/><g id="a"><use transform="matrix(0.05,0,0,0.05,0,0)" xlink:href="#R"/><use transform="matrix(0.05,0,0,0.05,10.950000000000001,0)" xlink:href="#S"/><use transform="matrix(0.05,0,0,0.05,14.9,0)" xlink:href="#T"/><use transform="matrix(0.05,0,0,0.05,20.85,0)" xlink:href="#U"/><use transform="matrix(0.05,0,0,0.05,30.85,0)" xlink:href="#V"/><use transform="matrix(0.05,0,0,0.05,40.85,0)" xlink:href="#W"/><use transform="matrix(0.05,0,0,0.05,50.85,0)" xlink:href="#X"/><use transform="matrix(0.05,0,0,0.05,59.85,0)" xlink:href="#U"/></g><path d="M197 0v-115H63V0H30v-248h33v105h134v-105h34V0h-34" id="Y"/><path d="M100-194c62-1 85 37 85 99 1 63-27 99-86 99S16-35 15-95c0-66 28-99 85-99zM99-20c44 1 53-31 53-75 0-43-8-75-51-75s-53 32-53 75 10 74 51 75" id="Z"/><path d="M59-47c-2 24 18 29 38 22v24C64 9 27 4 27-40v-127H5v-23h24l9-43h21v43h35v23H59v120" id="aa"/><path d="M117-194c89-4 53 116 60 194h-32v-121c0-31-8-49-39-48C34-167 62-67 57 0H25l-1-190h30c1 10-1 24 2 32 11-22 29-35 61-36" id="ab"/><path d="M177-190C167-65 218 103 67 71c-23-6-38-20-44-43l32-5c15 47 100 32 89-28v-30C133-14 115 1 83 1 29 1 15-40 15-95c0-56 16-97 71-98 29-1 48 16 59 35 1-10 0-23 2-32h30zM94-22c36 0 50-32 50-73 0-42-14-75-50-75-39 0-46 34-46 75s6 73 46 73" id="ac"/><g id="b"><use transform="matrix(0.05,0,0,0.05,0,0)" xlink:href="#Y"/><use transform="matrix(0.05,0,0,0.05,12.950000000000001,0)" xlink:href="#Z"/><use transform="matrix(0.05,0,0,0.05,22.950000000000003,0)" xlink:href="#X"/><use transform="matrix(0.05,0,0,0.05,31.950000000000003,0)" xlink:href="#aa"/><use transform="matrix(0.05,0,0,0.05,36.95,0)" xlink:href="#S"/><use transform="matrix(0.05,0,0,0.05,40.900000000000006,0)" xlink:href="#ab"/><use transform="matrix(0.05,0,0,0.05,50.900000000000006,0)" xlink:href="#ac"/></g><path d="M145-31C134-9 116 4 85 4 32 4 16-35 15-94c0-59 17-99 70-100 32-1 48 14 60 33 0-11-1-24 2-32h30l-1 268h-32zM93-21c41 0 51-33 51-76s-8-73-50-73c-40 0-46 35-46 75s5 74 45 74" id="ad"/><path d="M84 4C-5 8 30-112 23-190h32v120c0 31 7 50 39 49 72-2 45-101 50-169h31l1 190h-30c-1-10 1-25-2-33-11 22-28 36-60 37" id="ae"/><g id="c"><use transform="matrix(0.05,0,0,0.05,0,0)" xlink:href="#T"/><use transform="matrix(0.05,0,0,0.05,5.95,0)" xlink:href="#U"/><use transform="matrix(0.05,0,0,0.05,15.949999999999998,0)" xlink:href="#ad"/><use transform="matrix(0.05,0,0,0.05,25.950000000000003,0)" xlink:href="#ae"/><use transform="matrix(0.05,0,0,0.05,35.95,0)" xlink:href="#U"/><use transform="matrix(0.05,0,0,0.05,45.95,0)" xlink:href="#X"/><use transform="matrix(0.05,0,0,0.05,54.95,0)" xlink:href="#aa"/></g><path d="M233-177c-1 41-23 64-60 70L243 0h-38l-65-103H63V0H30v-248c88 3 205-21 203 71zM63-129c60-2 137 13 137-47 0-61-80-42-137-45v92" id="af"/><path d="M96-169c-40 0-48 33-48 73s9 75 48 75c24 0 41-14 43-38l32 2c-6 37-31 61-74 61-59 0-76-41-82-99-10-93 101-131 147-64 4 7 5 14 7 22l-32 3c-4-21-16-35-41-35" id="ag"/><g id="d"><use transform="matrix(0.05,0,0,0.05,0,0)" xlink:href="#af"/><use transform="matrix(0.05,0,0,0.05,12.950000000000001,0)" xlink:href="#U"/><use transform="matrix(0.05,0,0,0.05,22.950000000000003,0)" xlink:href="#W"/><use transform="matrix(0.05,0,0,0.05,32.95,0)" xlink:href="#ag"/><use transform="matrix(0.05,0,0,0.05,41.95,0)" xlink:href="#aa"/></g><path d="M205 0l-28-72H64L36 0H1l101-248h38L239 0h-34zm-38-99l-47-123c-12 45-31 82-46 123h93" id="ah"/><path d="M115-194c55 1 70 41 70 98S169 2 115 4C84 4 66-9 55-30l1 105H24l-1-265h31l2 30c10-21 28-34 59-34zm-8 174c40 0 45-34 45-75s-6-73-45-74c-42 0-51 32-51 76 0 43 10 73 51 73" id="ai"/><g id="e"><use transform="matrix(0.05,0,0,0.05,0,0)" xlink:href="#ah"/><use transform="matrix(0.05,0,0,0.05,12,0)" xlink:href="#ai"/><use transform="matrix(0.05,0,0,0.05,22,0)" xlink:href="#ai"/></g><g id="f"><use transform="matrix(0.05,0,0,0.05,0,0)" xlink:href="#R"/><use transform="matrix(0.05,0,0,0.05,10.950000000000001,0)" xlink:href="#S"/><use transform="matrix(0.05,0,0,0.05,14.9,0)" xlink:href="#T"/><use transform="matrix(0.05,0,0,0.05,20.85,0)" xlink:href="#U"/><use transform="matrix(0.05,0,0,0.05,30.85,0)" xlink:href="#V"/><use transform="matrix(0.05,0,0,0.05,40.85,0)" xlink:href="#W"/><use transform="matrix(0.05,0,0,0.05,50.85,0)" xlink:href="#X"/><use transform="matrix(0.05,0,0,0.05,59.85,0)" xlink:href="#U"/></g><path d="M106-169C34-169 62-67 57 0H25v-261h32l-1 103c12-21 28-36 61-36 89 0 53 116 60 194h-32v-121c2-32-8-49-39-48" id="aj"/><g id="g"><use transform="matrix(0.05,0,0,0.05,0,0)" xlink:href="#ah"/><use transform="matrix(0.05,0,0,0.05,12,0)" xlink:href="#ae"/><use transform="matrix(0.05,0,0,0.05,22,0)" xlink:href="#aa"/><use transform="matrix(0.05,0,0,0.05,27,0)" xlink:href="#aj"/><use transform="matrix(0.05,0,0,0.05,37,0)" xlink:href="#U"/><use transform="matrix(0.05,0,0,0.05,47,0)" xlink:href="#ab"/><use transform="matrix(0.05,0,0,0.05,57,0)" xlink:href="#aa"/><use transform="matrix(0.05,0,0,0.05,62,0)" xlink:href="#S"/><use transform="matrix(0.05,0,0,0.05,65.95,0)" xlink:href="#ag"/><use transform="matrix(0.05,0,0,0.05,74.95,0)" xlink:href="#W"/><use transform="matrix(0.05,0,0,0.05,84.95,0)" xlink:href="#aa"/><use transform="matrix(0.05,0,0,0.05,89.95,0)" xlink:href="#S"/><use transform="matrix(0.05,0,0,0.05,93.9,0)" xlink:href="#Z"/><use transform="matrix(0.05,0,0,0.05,103.9,0)" xlink:href="#ab"/></g><path d="M143 4C61 4 22-44 18-125c-5-107 100-154 193-111 17 8 29 25 37 43l-32 9c-13-25-37-40-76-40-61 0-88 39-88 99 0 61 29 100 91 101 35 0 62-11 79-27v-45h-74v-28h105v86C228-13 192 4 143 4" id="ak"/><path d="M24 0v-261h32V0H24" id="al"/><g id="h"><use transform="matrix(0.05,0,0,0.05,0,0)" xlink:href="#ak"/><use transform="matrix(0.05,0,0,0.05,14,0)" xlink:href="#Z"/><use transform="matrix(0.05,0,0,0.05,24,0)" xlink:href="#Z"/><use transform="matrix(0.05,0,0,0.05,34,0)" xlink:href="#ac"/><use transform="matrix(0.05,0,0,0.05,44,0)" xlink:href="#al"/><use transform="matrix(0.05,0,0,0.05,47.95,0)" xlink:href="#U"/></g><g id="i"><use transform="matrix(0.05,0,0,0.05,0,0)" xlink:href="#W"/><use transform="matrix(0.05,0,0,0.05,10,0)" xlink:href="#ae"/><use transform="matrix(0.05,0,0,0.05,20,0)" xlink:href="#aa"/><use transform="matrix(0.05,0,0,0.05,25,0)" xlink:href="#aj"/><use transform="matrix(0.05,0,0,0.05,35,0)" xlink:href="#U"/><use transform="matrix(0.05,0,0,0.05,45,0)" xlink:href="#ab"/><use transform="matrix(0.05,0,0,0.05,55,0)" xlink:href="#aa"/><use transform="matrix(0.05,0,0,0.05,60,0)" xlink:href="#S"/><use transform="matrix(0.05,0,0,0.05,63.95,0)" xlink:href="#ag"/><use transform="matrix(0.05,0,0,0.05,72.95,0)" xlink:href="#W"/><use transform="matrix(0.05,0,0,0.05,82.95,0)" xlink:href="#aa"/><use transform="matrix(0.05,0,0,0.05,87.95,0)" xlink:href="#S"/><use transform="matrix(0.05,0,0,0.05,91.9,0)" xlink:href="#Z"/><use transform="matrix(0.05,0,0,0.05,101.9,0)" xlink:href="#ab"/></g><path d="M143 0L79-87 56-68V0H24v-261h32v163l83-92h37l-77 82L181 0h-38" id="am"/><g id="j"><use transform="matrix(0.05,0,0,0.05,0,0)" xlink:href="#V"/><use transform="matrix(0.05,0,0,0.05,10,0)" xlink:href="#al"/><use transform="matrix(0.05,0,0,0.05,13.949999999999998,0)" xlink:href="#W"/><use transform="matrix(0.05,0,0,0.05,23.95,0)" xlink:href="#ag"/><use transform="matrix(0.05,0,0,0.05,32.95,0)" xlink:href="#am"/></g><path d="M141 0L90-78 38 0H4l68-98-65-92h35l48 74 47-74h35l-64 92 68 98h-35" id="an"/><g id="k"><use transform="matrix(0.05,0,0,0.05,0,0)" xlink:href="#V"/><use transform="matrix(0.05,0,0,0.05,10,0)" xlink:href="#Z"/><use transform="matrix(0.05,0,0,0.05,20,0)" xlink:href="#an"/></g><path fill="#147eba" d="M128-127c34 4 56 21 59 58 7 91-148 94-172 28-4-9-6-17-7-26l51-5c1 24 16 35 40 36 23 0 39-12 38-36-1-31-31-36-65-34v-40c32 2 59-3 59-33 0-20-13-33-34-33s-33 13-35 32l-50-3c6-44 37-68 86-68 50 0 83 20 83 66 0 35-22 52-53 58" id="ao"/><path fill="#147eba" d="M135-150c-39-12-60 13-60 57V0H25l-1-190h47c2 13-1 29 3 40 6-28 27-53 61-41v41" id="ap"/><path fill="#147eba" d="M88-194c31-1 46 15 58 34l-1-101h50l1 261h-48c-2-10 0-23-3-31C134-8 116 4 84 4 32 4 16-41 15-95c0-56 19-97 73-99zm17 164c33 0 40-30 41-66 1-37-9-64-41-64s-38 30-39 65c0 43 13 65 39 65" id="aq"/><g id="l"><use transform="matrix(0.07407407407407408,0,0,0.07407407407407408,0,0)" xlink:href="#ao"/><use transform="matrix(0.07407407407407408,0,0,0.07407407407407408,14.814814814814817,0)" xlink:href="#ap"/><use transform="matrix(0.07407407407407408,0,0,0.07407407407407408,25.185185185185187,0)" xlink:href="#aq"/></g><path fill="#147eba" d="M24-248c93 1 206-16 204 79-1 75-69 88-152 82V0H24v-248zm52 121c47 0 100 7 100-41 0-47-54-39-100-39v80" id="ar"/><path fill="#147eba" d="M133-34C117-15 103 5 69 4 32 3 11-16 11-54c-1-60 55-63 116-61 1-26-3-47-28-47-18 1-26 9-28 27l-52-2c7-38 36-58 82-57s74 22 75 68l1 82c-1 14 12 18 25 15v27c-30 8-71 5-69-32zm-48 3c29 0 43-24 42-57-32 0-66-3-65 30 0 17 8 27 23 27" id="as"/><path fill="#147eba" d="M115-3C79 11 28 4 28-45v-112H4v-33h27l15-45h31v45h36v33H77v99c-1 23 16 31 38 25v30" id="at"/><path fill="#147eba" d="M123 10C108 53 80 86 19 72V37c35 8 53-11 59-39L3-190h52l48 148c12-52 28-100 44-148h51" id="au"/><g id="m"><use transform="matrix(0.07407407407407408,0,0,0.07407407407407408,0,0)" xlink:href="#ar"/><use transform="matrix(0.07407407407407408,0,0,0.07407407407407408,17.77777777777778,0)" xlink:href="#as"/><use transform="matrix(0.07407407407407408,0,0,0.07407407407407408,32.592592592592595,0)" xlink:href="#ap"/><use transform="matrix(0.07407407407407408,0,0,0.07407407407407408,42.96296296296297,0)" xlink:href="#at"/><use transform="matrix(0.07407407407407408,0,0,0.07407407407407408,51.777777777777786,0)" xlink:href="#au"/></g><path fill="#147eba" d="M199 0l-22-63H83L61 0H9l90-248h61L250 0h-51zm-33-102l-36-108c-10 38-24 72-36 108h72" id="av"/><path fill="#147eba" d="M24 0v-248h52V0H24" id="aw"/><g id="n"><use transform="matrix(0.07407407407407408,0,0,0.07407407407407408,0,0)" xlink:href="#av"/><use transform="matrix(0.07407407407407408,0,0,0.07407407407407408,19.185185185185187,0)" xlink:href="#ar"/><use transform="matrix(0.07407407407407408,0,0,0.07407407407407408,36.96296296296296,0)" xlink:href="#aw"/></g><g id="o"><use transform="matrix(0.05,0,0,0.05,0,0)" xlink:href="#R"/><use transform="matrix(0.05,0,0,0.05,10.950000000000001,0)" xlink:href="#S"/><use transform="matrix(0.05,0,0,0.05,14.9,0)" xlink:href="#T"/><use transform="matrix(0.05,0,0,0.05,20.85,0)" xlink:href="#U"/><use transform="matrix(0.05,0,0,0.05,30.85,0)" xlink:href="#X"/><use transform="matrix(0.05,0,0,0.05,39.85,0)" xlink:href="#aa"/><use transform="matrix(0.05,0,0,0.05,44.85,0)" xlink:href="#Z"/><use transform="matrix(0.05,0,0,0.05,54.85,0)" xlink:href="#T"/><use transform="matrix(0.05,0,0,0.05,60.800000000000004,0)" xlink:href="#U"/></g><path d="M30-248c118-7 216 8 213 122C240-48 200 0 122 0H30v-248zM63-27c89 8 146-16 146-99s-60-101-146-95v194" id="ax"/><g id="p"><use transform="matrix(0.05,0,0,0.05,0,0)" xlink:href="#ax"/><use transform="matrix(0.05,0,0,0.05,12.950000000000001,0)" xlink:href="#W"/><use transform="matrix(0.05,0,0,0.05,22.950000000000003,0)" xlink:href="#aa"/><use transform="matrix(0.05,0,0,0.05,27.950000000000003,0)" xlink:href="#W"/><use transform="matrix(0.05,0,0,0.05,37.95,0)" xlink:href="#V"/><use transform="matrix(0.05,0,0,0.05,47.95,0)" xlink:href="#W"/><use transform="matrix(0.05,0,0,0.05,57.95,0)" xlink:href="#X"/><use transform="matrix(0.05,0,0,0.05,66.95,0)" xlink:href="#U"/></g><path fill="#147eba" d="M182-130c37 4 62 22 62 59C244 23 116-4 24 0v-248c84 5 203-23 205 63 0 31-19 50-47 55zM76-148c40-3 101 13 101-30 0-44-60-28-101-31v61zm0 110c48-3 116 14 116-37 0-48-69-32-116-35v72" id="ay"/><path fill="#147eba" d="M190-63c-7 42-38 67-86 67-59 0-84-38-90-98-12-110 154-137 174-36l-49 2c-2-19-15-32-35-32-30 0-35 28-38 64-6 74 65 87 74 30" id="az"/><path fill="#147eba" d="M147 0L96-86 75-71V0H25v-261h50v150l67-79h53l-66 74L201 0h-54" id="aA"/><path fill="#147eba" d="M185-48c-13 30-37 53-82 52C43 2 14-33 14-96s30-98 90-98c62 0 83 45 84 108H66c0 31 8 55 39 56 18 0 30-7 34-22zm-45-69c5-46-57-63-70-21-2 6-4 13-4 21h74" id="aB"/><path fill="#147eba" d="M135-194c87-1 58 113 63 194h-50c-7-57 23-157-34-157-59 0-34 97-39 157H25l-1-190h47c2 12-1 28 3 38 12-26 28-41 61-42" id="aC"/><g id="q"><use transform="matrix(0.07407407407407408,0,0,0.07407407407407408,0,0)" xlink:href="#ay"/><use transform="matrix(0.07407407407407408,0,0,0.07407407407407408,19.185185185185187,0)" xlink:href="#as"/><use transform="matrix(0.07407407407407408,0,0,0.07407407407407408,34,0)" xlink:href="#az"/><use transform="matrix(0.07407407407407408,0,0,0.07407407407407408,48.81481481481481,0)" xlink:href="#aA"/><use transform="matrix(0.07407407407407408,0,0,0.07407407407407408,63.629629629629626,0)" xlink:href="#aB"/><use transform="matrix(0.07407407407407408,0,0,0.07407407407407408,78.44444444444446,0)" xlink:href="#aC"/><use transform="matrix(0.07407407407407408,0,0,0.07407407407407408,94.66666666666669,0)" xlink:href="#aq"/></g><path d="M30 0v-248h33v221h125V0H30" id="aD"/><path d="M108 0H70L1-190h34L89-25l56-165h34" id="aE"/><g id="r"><use transform="matrix(0.05,0,0,0.05,0,0)" xlink:href="#aD"/><use transform="matrix(0.05,0,0,0.05,10,0)" xlink:href="#U"/><use transform="matrix(0.05,0,0,0.05,20,0)" xlink:href="#aE"/><use transform="matrix(0.05,0,0,0.05,29,0)" xlink:href="#U"/><use transform="matrix(0.05,0,0,0.05,39,0)" xlink:href="#al"/></g><path d="M126-127c33 6 58 20 58 59 0 88-139 92-164 29-3-8-5-16-6-25l32-3c6 27 21 44 54 44 32 0 52-15 52-46 0-38-36-46-79-43v-28c39 1 72-4 72-42 0-27-17-43-46-43-28 0-47 15-49 41l-32-3c6-42 35-63 81-64 48-1 79 21 79 65 0 36-21 52-52 59" id="aF"/><path d="M33-154v-36h34v36H33zM33 0v-36h34V0H33" id="aG"/><g id="s"><use transform="matrix(0.05,0,0,0.05,0,0)" xlink:href="#aF"/><use transform="matrix(0.05,0,0,0.05,10,0)" xlink:href="#aG"/></g><path d="M212-179c-10-28-35-45-73-45-59 0-87 40-87 99 0 60 29 101 89 101 43 0 62-24 78-52l27 14C228-24 195 4 139 4 59 4 22-46 18-125c-6-104 99-153 187-111 19 9 31 26 39 46" id="aH"/><path d="M210-169c-67 3-38 105-44 169h-31v-121c0-29-5-50-35-48C34-165 62-65 56 0H25l-1-190h30c1 10-1 24 2 32 10-44 99-50 107 0 11-21 27-35 58-36 85-2 47 119 55 194h-31v-121c0-29-5-49-35-48" id="aI"/><g id="t"><use transform="matrix(0.05,0,0,0.05,0,0)" xlink:href="#aH"/><use transform="matrix(0.05,0,0,0.05,12.950000000000001,0)" xlink:href="#Z"/><use transform="matrix(0.05,0,0,0.05,22.950000000000003,0)" xlink:href="#aI"/><use transform="matrix(0.05,0,0,0.05,37.900000000000006,0)" xlink:href="#ai"/><use transform="matrix(0.05,0,0,0.05,47.900000000000006,0)" xlink:href="#Z"/><use transform="matrix(0.05,0,0,0.05,57.900000000000006,0)" xlink:href="#ab"/><use transform="matrix(0.05,0,0,0.05,67.9,0)" xlink:href="#U"/><use transform="matrix(0.05,0,0,0.05,77.9,0)" xlink:href="#ab"/><use transform="matrix(0.05,0,0,0.05,87.9,0)" xlink:href="#aa"/></g><g id="u"><use transform="matrix(0.05,0,0,0.05,0,0)" xlink:href="#aD"/><use transform="matrix(0.05,0,0,0.05,10,0)" xlink:href="#U"/><use transform="matrix(0.05,0,0,0.05,20,0)" xlink:href="#aE"/><use transform="matrix(0.05,0,0,0.05,29,0)" xlink:href="#U"/><use transform="matrix(0.05,0,0,0.05,39,0)" xlink:href="#al"/></g><g id="v"><use transform="matrix(0.05,0,0,0.05,0,0)" xlink:href="#ax"/><use transform="matrix(0.05,0,0,0.05,12.950000000000001,0)" xlink:href="#S"/><use transform="matrix(0.05,0,0,0.05,16.900000000000002,0)" xlink:href="#W"/><use transform="matrix(0.05,0,0,0.05,26.900000000000002,0)" xlink:href="#ac"/><use transform="matrix(0.05,0,0,0.05,36.900000000000006,0)" xlink:href="#T"/><use transform="matrix(0.05,0,0,0.05,42.85000000000001,0)" xlink:href="#W"/><use transform="matrix(0.05,0,0,0.05,52.85,0)" xlink:href="#aI"/></g><g id="w"><use transform="matrix(0.05,0,0,0.05,0,0)" xlink:href="#af"/><use transform="matrix(0.05,0,0,0.05,12.950000000000001,0)" xlink:href="#U"/><use transform="matrix(0.05,0,0,0.05,22.950000000000003,0)" xlink:href="#W"/><use transform="matrix(0.05,0,0,0.05,32.95,0)" xlink:href="#ag"/><use transform="matrix(0.05,0,0,0.05,41.95,0)" xlink:href="#aa"/></g><path fill="#147eba" d="M76-208v77h127v40H76V0H24v-248h183v40H76" id="aJ"/><path fill="#147eba" d="M110-194c64 0 96 36 96 99 0 64-35 99-97 99-61 0-95-36-95-99 0-62 34-99 96-99zm-1 164c35 0 45-28 45-65 0-40-10-65-43-65-34 0-45 26-45 65 0 36 10 65 43 65" id="aK"/><g id="x"><use transform="matrix(0.07407407407407408,0,0,0.07407407407407408,0,0)" xlink:href="#aJ"/><use transform="matrix(0.07407407407407408,0,0,0.07407407407407408,16.222222222222225,0)" xlink:href="#ap"/><use transform="matrix(0.07407407407407408,0,0,0.07407407407407408,26.592592592592595,0)" xlink:href="#aK"/><use transform="matrix(0.07407407407407408,0,0,0.07407407407407408,42.814814814814824,0)" xlink:href="#aC"/><use transform="matrix(0.07407407407407408,0,0,0.07407407407407408,59.03703703703705,0)" xlink:href="#at"/><use transform="matrix(0.07407407407407408,0,0,0.07407407407407408,67.85185185185188,0)" xlink:href="#aB"/><use transform="matrix(0.07407407407407408,0,0,0.07407407407407408,82.66666666666667,0)" xlink:href="#aC"/><use transform="matrix(0.07407407407407408,0,0,0.07407407407407408,98.88888888888891,0)" xlink:href="#aq"/></g><path d="M85-194c31 0 48 13 60 33l-1-100h32l1 261h-30c-2-10 0-23-3-31C134-8 116 4 85 4 32 4 16-35 15-94c0-66 23-100 70-100zm9 24c-40 0-46 34-46 75 0 40 6 74 45 74 42 0 51-32 51-76 0-42-9-74-50-73" id="aL"/><g id="y"><use transform="matrix(0.05,0,0,0.05,0,0)" xlink:href="#aE"/><use transform="matrix(0.05,0,0,0.05,9,0)" xlink:href="#W"/><use transform="matrix(0.05,0,0,0.05,19,0)" xlink:href="#al"/><use transform="matrix(0.05,0,0,0.05,22.95,0)" xlink:href="#S"/><use transform="matrix(0.05,0,0,0.05,26.899999999999995,0)" xlink:href="#aL"/><use transform="matrix(0.05,0,0,0.05,36.9,0)" xlink:href="#W"/><use transform="matrix(0.05,0,0,0.05,46.9,0)" xlink:href="#aa"/><use transform="matrix(0.05,0,0,0.05,51.900000000000006,0)" xlink:href="#U"/></g><g id="z"><use transform="matrix(0.05,0,0,0.05,0,0)" xlink:href="#aa"/><use transform="matrix(0.05,0,0,0.05,5,0)" xlink:href="#Z"/><use transform="matrix(0.05,0,0,0.05,15,0)" xlink:href="#am"/><use transform="matrix(0.05,0,0,0.05,24,0)" xlink:href="#U"/><use transform="matrix(0.05,0,0,0.05,34,0)" xlink:href="#ab"/></g><path d="M30-248c87 1 191-15 191 75 0 78-77 80-158 76V0H30v-248zm33 125c57 0 124 11 124-50 0-59-68-47-124-48v98" id="aM"/><g id="A"><use transform="matrix(0.05,0,0,0.05,0,0)" xlink:href="#aM"/><use transform="matrix(0.05,0,0,0.05,12,0)" xlink:href="#aH"/></g><g id="B"><use transform="matrix(0.05,0,0,0.05,0,0)" xlink:href="#aI"/><use transform="matrix(0.05,0,0,0.05,14.950000000000001,0)" xlink:href="#Z"/><use transform="matrix(0.05,0,0,0.05,24.950000000000003,0)" xlink:href="#V"/><use transform="matrix(0.05,0,0,0.05,34.95,0)" xlink:href="#S"/><use transform="matrix(0.05,0,0,0.05,38.900000000000006,0)" xlink:href="#al"/><use transform="matrix(0.05,0,0,0.05,42.85000000000001,0)" xlink:href="#U"/></g><path fill="#147eba" d="M67-125c0 53 21 87 73 88 37 1 54-22 65-47l45 17C233-25 199 4 140 4 58 4 20-42 15-125 8-235 124-281 211-232c18 10 29 29 36 50l-46 12c-8-25-30-41-62-41-52 0-71 34-72 86" id="aN"/><path fill="#147eba" d="M25 0v-261h50V0H25" id="aO"/><path fill="#147eba" d="M25-224v-37h50v37H25zM25 0v-190h50V0H25" id="aP"/><g id="C"><use transform="matrix(0.07407407407407408,0,0,0.07407407407407408,0,0)" xlink:href="#aN"/><use transform="matrix(0.07407407407407408,0,0,0.07407407407407408,19.185185185185187,0)" xlink:href="#aO"/><use transform="matrix(0.07407407407407408,0,0,0.07407407407407408,26.592592592592595,0)" xlink:href="#aP"/><use transform="matrix(0.07407407407407408,0,0,0.07407407407407408,34,0)" xlink:href="#aB"/><use transform="matrix(0.07407407407407408,0,0,0.07407407407407408,48.81481481481481,0)" xlink:href="#aC"/><use transform="matrix(0.07407407407407408,0,0,0.07407407407407408,65.03703703703704,0)" xlink:href="#at"/></g><g id="D"><use transform="matrix(0.05,0,0,0.05,0,0)" xlink:href="#T"/><use transform="matrix(0.05,0,0,0.05,5.95,0)" xlink:href="#ae"/><use transform="matrix(0.05,0,0,0.05,15.949999999999998,0)" xlink:href="#ab"/><use transform="matrix(0.05,0,0,0.05,25.950000000000003,0)" xlink:href="#X"/></g><g id="E"><use transform="matrix(0.05,0,0,0.05,0,0)" xlink:href="#aa"/><use transform="matrix(0.05,0,0,0.05,5,0)" xlink:href="#T"/><use transform="matrix(0.05,0,0,0.05,10.95,0)" xlink:href="#S"/><use transform="matrix(0.05,0,0,0.05,14.899999999999999,0)" xlink:href="#ac"/><use transform="matrix(0.05,0,0,0.05,24.9,0)" xlink:href="#ac"/><use transform="matrix(0.05,0,0,0.05,34.9,0)" xlink:href="#U"/><use transform="matrix(0.05,0,0,0.05,44.9,0)" xlink:href="#T"/></g><g id="F"><use transform="matrix(0.05,0,0,0.05,0,0)" xlink:href="#ax"/><use transform="matrix(0.05,0,0,0.05,12.950000000000001,0)" xlink:href="#W"/><use transform="matrix(0.05,0,0,0.05,22.950000000000003,0)" xlink:href="#aa"/><use transform="matrix(0.05,0,0,0.05,27.950000000000003,0)" xlink:href="#W"/></g><path d="M179-190L93 31C79 59 56 82 12 73V49c39 6 53-20 64-50L1-190h34L92-34l54-156h33" id="aQ"/><g id="G"><use transform="matrix(0.05,0,0,0.05,0,0)" xlink:href="#aH"/><use transform="matrix(0.05,0,0,0.05,12.950000000000001,0)" xlink:href="#Z"/><use transform="matrix(0.05,0,0,0.05,22.950000000000003,0)" xlink:href="#ab"/><use transform="matrix(0.05,0,0,0.05,32.95,0)" xlink:href="#X"/><use transform="matrix(0.05,0,0,0.05,41.95,0)" xlink:href="#S"/><use transform="matrix(0.05,0,0,0.05,45.900000000000006,0)" xlink:href="#X"/><use transform="matrix(0.05,0,0,0.05,54.900000000000006,0)" xlink:href="#aa"/><use transform="matrix(0.05,0,0,0.05,59.900000000000006,0)" xlink:href="#U"/><use transform="matrix(0.05,0,0,0.05,69.9,0)" xlink:href="#ab"/><use transform="matrix(0.05,0,0,0.05,79.9,0)" xlink:href="#ag"/><use transform="matrix(0.05,0,0,0.05,88.9,0)" xlink:href="#aQ"/></g><g id="H"><use transform="matrix(0.05,0,0,0.05,0,0)" xlink:href="#aH"/><use transform="matrix(0.05,0,0,0.05,12.950000000000001,0)" xlink:href="#Z"/><use transform="matrix(0.05,0,0,0.05,22.950000000000003,0)" xlink:href="#aI"/><use transform="matrix(0.05,0,0,0.05,37.900000000000006,0)" xlink:href="#ai"/><use transform="matrix(0.05,0,0,0.05,47.900000000000006,0)" xlink:href="#Z"/><use transform="matrix(0.05,0,0,0.05,57.900000000000006,0)" xlink:href="#ab"/><use transform="matrix(0.05,0,0,0.05,67.9,0)" xlink:href="#U"/><use transform="matrix(0.05,0,0,0.05,77.9,0)" xlink:href="#ab"/><use transform="matrix(0.05,0,0,0.05,87.9,0)" xlink:href="#aa"/></g><path d="M9 0v-24l116-142H16v-24h144v24L44-24h123V0H9" id="aR"/><g id="I"><use transform="matrix(0.05,0,0,0.05,0,0)" xlink:href="#ax"/><use transform="matrix(0.05,0,0,0.05,12.950000000000001,0)" xlink:href="#U"/><use transform="matrix(0.05,0,0,0.05,22.950000000000003,0)" xlink:href="#ab"/><use transform="matrix(0.05,0,0,0.05,32.95,0)" xlink:href="#Z"/><use transform="matrix(0.05,0,0,0.05,42.95,0)" xlink:href="#T"/><use transform="matrix(0.05,0,0,0.05,48.900000000000006,0)" xlink:href="#aI"/><use transform="matrix(0.05,0,0,0.05,63.85,0)" xlink:href="#W"/><use transform="matrix(0.05,0,0,0.05,73.85000000000001,0)" xlink:href="#al"/><use transform="matrix(0.05,0,0,0.05,77.80000000000001,0)" xlink:href="#S"/><use transform="matrix(0.05,0,0,0.05,81.75000000000001,0)" xlink:href="#aR"/><use transform="matrix(0.05,0,0,0.05,90.75000000000001,0)" xlink:href="#W"/><use transform="matrix(0.05,0,0,0.05,100.75000000000001,0)" xlink:href="#aa"/><use transform="matrix(0.05,0,0,0.05,105.75,0)" xlink:href="#S"/><use transform="matrix(0.05,0,0,0.05,109.7,0)" xlink:href="#Z"/><use transform="matrix(0.05,0,0,0.05,119.7,0)" xlink:href="#ab"/></g><path fill="#147eba" d="M85 4C-2 5 27-109 22-190h50c7 57-23 150 33 157 60-5 35-97 40-157h50l1 190h-47c-2-12 1-28-3-38-12 25-28 42-61 42" id="aS"/><g id="J"><use transform="matrix(0.04938271604938272,0,0,0.04938271604938272,0,0)" xlink:href="#aN"/><use transform="matrix(0.04938271604938272,0,0,0.04938271604938272,12.790123456790125,0)" xlink:href="#aO"/><use transform="matrix(0.04938271604938272,0,0,0.04938271604938272,17.7283950617284,0)" xlink:href="#aK"/><use transform="matrix(0.04938271604938272,0,0,0.04938271604938272,28.54320987654322,0)" xlink:href="#aS"/><use transform="matrix(0.04938271604938272,0,0,0.04938271604938272,39.35802469135803,0)" xlink:href="#aq"/></g><path fill="#147eba" d="M137-138c1-29-70-34-71-4 15 46 118 7 119 86 1 83-164 76-172 9l43-7c4 19 20 25 44 25 33 8 57-30 24-41C81-84 22-81 20-136c-2-80 154-74 161-7" id="aT"/><g id="K"><use transform="matrix(0.04938271604938272,0,0,0.04938271604938272,0,0)" xlink:href="#aJ"/><use transform="matrix(0.04938271604938272,0,0,0.04938271604938272,10.814814814814815,0)" xlink:href="#aS"/><use transform="matrix(0.04938271604938272,0,0,0.04938271604938272,21.62962962962963,0)" xlink:href="#aC"/><use transform="matrix(0.04938271604938272,0,0,0.04938271604938272,32.44444444444444,0)" xlink:href="#az"/><use transform="matrix(0.04938271604938272,0,0,0.04938271604938272,42.32098765432099,0)" xlink:href="#at"/><use transform="matrix(0.04938271604938272,0,0,0.04938271604938272,48.19753086419753,0)" xlink:href="#aP"/><use transform="matrix(0.04938271604938272,0,0,0.04938271604938272,53.135802469135804,0)" xlink:href="#aK"/><use transform="matrix(0.04938271604938272,0,0,0.04938271604938272,63.95061728395062,0)" xlink:href="#aC"/><use transform="matrix(0.04938271604938272,0,0,0.04938271604938272,74.76543209876543,0)" xlink:href="#aT"/></g><path fill="#1d1c1d" d="M30-248c87 1 191-15 191 75 0 78-77 80-158 76V0H30v-248zm33 125c57 0 124 11 124-50 0-59-68-47-124-48v98" id="aU"/><path fill="#1d1c1d" d="M114-163C36-179 61-72 57 0H25l-1-190h30c1 12-1 29 2 39 6-27 23-49 58-41v29" id="aV"/><path fill="#1d1c1d" d="M100-194c62-1 85 37 85 99 1 63-27 99-86 99S16-35 15-95c0-66 28-99 85-99zM99-20c44 1 53-31 53-75 0-43-8-75-51-75s-53 32-53 75 10 74 51 75" id="aW"/><path fill="#1d1c1d" d="M101-234c-31-9-42 10-38 44h38v23H63V0H32v-167H5v-23h27c-7-52 17-82 69-68v24" id="aX"/><path fill="#1d1c1d" d="M24-231v-30h32v30H24zM24 0v-190h32V0H24" id="aY"/><path fill="#1d1c1d" d="M24 0v-261h32V0H24" id="aZ"/><path fill="#1d1c1d" d="M100-194c63 0 86 42 84 106H49c0 40 14 67 53 68 26 1 43-12 49-29l28 8c-11 28-37 45-77 45C44 4 14-33 15-96c1-61 26-98 85-98zm52 81c6-60-76-77-97-28-3 7-6 17-6 28h103" id="ba"/><g id="L"><use transform="matrix(0.04938271604938272,0,0,0.04938271604938272,0,0)" xlink:href="#aU"/><use transform="matrix(0.04938271604938272,0,0,0.04938271604938272,11.851851851851853,0)" xlink:href="#aV"/><use transform="matrix(0.04938271604938272,0,0,0.04938271604938272,17.728395061728396,0)" xlink:href="#aW"/><use transform="matrix(0.04938271604938272,0,0,0.04938271604938272,27.60493827160494,0)" xlink:href="#aX"/><use transform="matrix(0.04938271604938272,0,0,0.04938271604938272,32.543209876543216,0)" xlink:href="#aY"/><use transform="matrix(0.04938271604938272,0,0,0.04938271604938272,36.44444444444445,0)" xlink:href="#aZ"/><use transform="matrix(0.04938271604938272,0,0,0.04938271604938272,40.345679012345684,0)" xlink:href="#ba"/></g><path fill="#1d1c1d" d="M30 0v-248h187v28H63v79h144v27H63v87h162V0H30" id="bb"/><path fill="#1d1c1d" d="M85-194c31 0 48 13 60 33l-1-100h32l1 261h-30c-2-10 0-23-3-31C134-8 116 4 85 4 32 4 16-35 15-94c0-66 23-100 70-100zm9 24c-40 0-46 34-46 75 0 40 6 74 45 74 42 0 51-32 51-76 0-42-9-74-50-73" id="bc"/><path fill="#1d1c1d" d="M59-47c-2 24 18 29 38 22v24C64 9 27 4 27-40v-127H5v-23h24l9-43h21v43h35v23H59v120" id="bd"/><g id="M"><use transform="matrix(0.04938271604938272,0,0,0.04938271604938272,0,0)" xlink:href="#bb"/><use transform="matrix(0.04938271604938272,0,0,0.04938271604938272,11.851851851851853,0)" xlink:href="#bc"/><use transform="matrix(0.04938271604938272,0,0,0.04938271604938272,21.7283950617284,0)" xlink:href="#aY"/><use transform="matrix(0.04938271604938272,0,0,0.04938271604938272,25.629629629629633,0)" xlink:href="#bd"/></g><path fill="#1d1c1d" d="M212-179c-10-28-35-45-73-45-59 0-87 40-87 99 0 60 29 101 89 101 43 0 62-24 78-52l27 14C228-24 195 4 139 4 59 4 22-46 18-125c-6-104 99-153 187-111 19 9 31 26 39 46" id="be"/><path fill="#1d1c1d" d="M84 4C-5 8 30-112 23-190h32v120c0 31 7 50 39 49 72-2 45-101 50-169h31l1 190h-30c-1-10 1-25-2-33-11 22-28 36-60 37" id="bf"/><path fill="#1d1c1d" d="M135-143c-3-34-86-38-87 0 15 53 115 12 119 90S17 21 10-45l28-5c4 36 97 45 98 0-10-56-113-15-118-90-4-57 82-63 122-42 12 7 21 19 24 35" id="bg"/><path fill="#1d1c1d" d="M210-169c-67 3-38 105-44 169h-31v-121c0-29-5-50-35-48C34-165 62-65 56 0H25l-1-190h30c1 10-1 24 2 32 10-44 99-50 107 0 11-21 27-35 58-36 85-2 47 119 55 194h-31v-121c0-29-5-49-35-48" id="bh"/><g id="N"><use transform="matrix(0.04938271604938272,0,0,0.04938271604938272,0,0)" xlink:href="#be"/><use transform="matrix(0.04938271604938272,0,0,0.04938271604938272,12.790123456790125,0)" xlink:href="#bf"/><use transform="matrix(0.04938271604938272,0,0,0.04938271604938272,22.66666666666667,0)" xlink:href="#bg"/><use transform="matrix(0.04938271604938272,0,0,0.04938271604938272,31.555555555555557,0)" xlink:href="#bd"/><use transform="matrix(0.04938271604938272,0,0,0.04938271604938272,36.49382716049384,0)" xlink:href="#aW"/><use transform="matrix(0.04938271604938272,0,0,0.04938271604938272,46.37037037037038,0)" xlink:href="#bh"/></g><path fill="#1d1c1d" d="M141-36C126-15 110 5 73 4 37 3 15-17 15-53c-1-64 63-63 125-63 3-35-9-54-41-54-24 1-41 7-42 31l-33-3c5-37 33-52 76-52 45 0 72 20 72 64v82c-1 20 7 32 28 27v20c-31 9-61-2-59-35zM48-53c0 20 12 33 32 33 41-3 63-29 60-74-43 2-92-5-92 41" id="bi"/><g id="O"><use transform="matrix(0.04938271604938272,0,0,0.04938271604938272,0,0)" xlink:href="#be"/><use transform="matrix(0.04938271604938272,0,0,0.04938271604938272,12.790123456790125,0)" xlink:href="#aZ"/><use transform="matrix(0.04938271604938272,0,0,0.04938271604938272,16.69135802469136,0)" xlink:href="#bi"/><use transform="matrix(0.04938271604938272,0,0,0.04938271604938272,26.567901234567902,0)" xlink:href="#aY"/><use transform="matrix(0.04938271604938272,0,0,0.04938271604938272,30.46913580246914,0)" xlink:href="#bh"/></g><g id="P"><use transform="matrix(0.05,0,0,0.05,0,0)" xlink:href="#aj"/><use transform="matrix(0.05,0,0,0.05,10,0)" xlink:href="#Z"/><use transform="matrix(0.05,0,0,0.05,20,0)" xlink:href="#X"/><use transform="matrix(0.05,0,0,0.05,29,0)" xlink:href="#aa"/></g><g id="Q"><use transform="matrix(0.05,0,0,0.05,0,0)" xlink:href="#ad"/><use transform="matrix(0.05,0,0,0.05,10,0)" xlink:href="#ae"/><use transform="matrix(0.05,0,0,0.05,20,0)" xlink:href="#U"/><use transform="matrix(0.05,0,0,0.05,30,0)" xlink:href="#T"/><use transform="matrix(0.05,0,0,0.05,35.95,0)" xlink:href="#aQ"/></g></defs></g></svg>